<svg width="906" height="310" viewBox="0 0 906 310" fill="none" xmlns="http://www.w3.org/2000/svg">
<path d="M771.72 228.266C742.304 270.943 676.092 300.831 653.768 310C656.543 307.648 698.113 271.816 709.369 239.083C721.214 204.646 722.689 190.251 704.74 151.743C684.393 108.095 632.072 38.5072 626 30C652.984 47.7046 709.936 79.9954 736.543 105.996C763.716 132.546 780.443 162.476 782.43 188.124C783.575 202.787 779.967 216.294 771.72 228.266Z" fill="#6F00FF"/>
<path d="M846.834 182.743C847.011 198.194 840.506 214.517 826.609 230.04C802.616 256.843 765.458 269.989 731.389 281.023C755.243 266.501 765.018 257.139 780.814 234.237C790.948 219.533 793.798 205.166 792.376 186.884C789.279 147.01 759.887 112.798 742.637 95.9529C724.522 78.2483 711.73 68.3383 684.079 49.2252C684.136 49.2393 789.735 94.7557 822.147 130.63C838.343 148.56 846.645 166.095 846.834 182.743Z" fill="#9A4DFF"/>
<path d="M832.215 240.688C832.614 240.266 833.004 239.801 833.392 239.35C849.154 220.871 857.045 201.758 856.825 182.561C856.591 161.87 847.4 141.757 828.719 121.08C814.343 105.179 792.277 89.2066 767.857 74.4175C798.637 86.9671 828.752 100.39 851.851 113.08C948.466 166.194 899.304 198.843 832.215 240.688Z" fill="#C599FF"/>
<path d="M147.803 226.559C147.803 220.699 146.826 215.475 144.873 210.885C142.92 206.295 139.697 202.193 135.205 198.58C130.811 194.869 124.854 191.451 117.334 188.326C109.912 185.104 100.635 181.93 89.502 178.805C78.8574 175.777 69.2383 172.457 60.6445 168.844C52.0508 165.23 44.6777 161.08 38.5254 156.393C32.4707 151.705 27.832 146.236 24.6094 139.986C21.3867 133.639 19.7754 126.266 19.7754 117.867C19.7754 109.664 21.5332 102.193 25.0488 95.4551C28.5645 88.7168 33.4961 82.9062 39.8438 78.0234C46.2891 73.1406 53.8574 69.3809 62.5488 66.7441C71.3379 64.1074 80.957 62.7891 91.4062 62.7891C106.348 62.7891 119.238 65.6211 130.078 71.2852C141.016 76.9492 149.463 84.6152 155.42 94.2832C161.475 103.854 164.502 114.596 164.502 126.51H146.484C146.484 117.232 144.287 108.98 139.893 101.754C135.596 94.4297 129.346 88.7168 121.143 84.6152C113.037 80.416 103.125 78.3164 91.4062 78.3164C79.6875 78.3164 69.8242 80.123 61.8164 83.7363C53.9062 87.252 47.9004 91.9883 43.7988 97.9453C39.7949 103.805 37.793 110.348 37.793 117.574C37.793 122.652 38.7695 127.34 40.7227 131.637C42.6758 135.836 45.8496 139.791 50.2441 143.502C54.7363 147.115 60.6445 150.533 67.9688 153.756C75.293 156.881 84.3262 159.859 95.0684 162.691C106.396 165.816 116.455 169.283 125.244 173.092C134.033 176.9 141.455 181.295 147.51 186.275C153.564 191.158 158.154 196.871 161.279 203.414C164.404 209.957 165.967 217.574 165.967 226.266C165.967 234.957 164.111 242.77 160.4 249.703C156.787 256.539 151.66 262.35 145.02 267.135C138.477 271.92 130.713 275.582 121.729 278.121C112.842 280.66 103.125 281.93 92.5781 281.93C83.1055 281.93 73.6816 280.709 64.3066 278.268C54.9316 275.826 46.3379 272.066 38.5254 266.988C30.8105 261.812 24.6094 255.172 19.9219 247.066C15.332 238.961 13.0371 229.293 13.0371 218.062H30.9082C30.9082 227.047 32.7148 234.615 36.3281 240.768C39.9414 246.92 44.7266 251.9 50.6836 255.709C56.7383 259.518 63.3789 262.301 70.6055 264.059C77.9297 265.719 85.2539 266.549 92.5781 266.549C103.809 266.549 113.525 264.889 121.729 261.568C130.029 258.248 136.426 253.609 140.918 247.652C145.508 241.598 147.803 234.566 147.803 226.559ZM283.008 98.0918L222.217 279H179.59L259.277 65.7188H286.523L283.008 98.0918ZM333.838 279L272.754 98.0918L269.092 65.7188H296.484L376.611 279H333.838ZM331.055 199.752V231.539H216.65V199.752H331.055ZM441.504 65.7188V279H401.221V65.7188H441.504ZM615.088 263.619V279H504.492V263.619H615.088ZM509.766 65.7188V279H491.748V65.7188H509.766Z" fill="white"/>
</svg>
