<svg width="280" height="280" viewBox="0 0 280 280" fill="none" xmlns="http://www.w3.org/2000/svg">
<path d="M145.72 198.266C116.304 240.943 50.0917 270.831 27.7682 280C30.5432 277.648 72.1133 241.816 83.3688 209.083C95.2138 174.646 96.689 160.251 78.7401 121.743C58.3935 78.0945 6.07179 8.50722 0 6.23391e-06C26.9845 17.7046 83.9361 49.9954 110.543 75.9959C137.716 102.546 154.443 132.476 156.43 158.124C157.575 172.787 153.967 186.294 145.72 198.266Z" fill="#6F00FF"/>
<path d="M220.834 152.743C221.011 168.194 214.506 184.517 200.609 200.04C176.616 226.843 139.458 239.989 105.389 251.023C129.243 236.501 139.018 227.139 154.814 204.237C164.948 189.533 167.798 175.166 166.376 156.884C163.279 117.01 133.887 82.7983 116.637 65.9529C98.5215 48.2483 85.7297 38.3383 58.0792 19.2252C58.1358 19.2393 163.735 64.7557 196.147 100.63C212.343 118.56 220.645 136.095 220.834 152.743Z" fill="#9A4DFF"/>
<path d="M206.215 210.689C206.614 210.266 207.004 209.801 207.392 209.35C223.154 190.871 231.045 171.758 230.825 152.561C230.591 131.87 221.4 111.757 202.719 91.0805C188.343 75.1788 166.277 59.2066 141.857 44.4176C172.637 56.9671 202.752 70.3899 225.851 83.0803C322.466 136.194 273.304 168.843 206.215 210.689Z" fill="#C599FF"/>
</svg>
